<svg width="24" height="24" viewBox="0 0 24 24" fill="none" xmlns="http://www.w3.org/2000/svg">
<g clip-path="url(#clip0_507_214)">
<path d="M9.09965 9.0488C9.09965 7.7063 8.18652 7.7063 8.18652 7.7063H4.43652V10.5844H7.95402C8.56152 10.5844 9.09965 10.3894 9.09965 9.0488ZM8.18652 12.5738H4.43652V16.0201H8.01777C8.5559 16.0051 9.55152 15.8326 9.55152 14.3438C9.5459 12.5625 8.18652 12.5738 8.18652 12.5738ZM17.7996 10.5844C15.8065 10.5844 15.529 12.5719 15.529 12.5719H19.7665C19.7665 12.5719 19.7928 10.5844 17.7996 10.5844Z" fill="#17141F"/>
<path d="M20.8596 0.405029H3.1409C2.41537 0.405029 1.71955 0.693246 1.20652 1.20628C0.69349 1.7193 0.405273 2.41512 0.405273 3.14065V20.8575C0.405273 21.5831 0.69349 22.2789 1.20652 22.7919C1.71955 23.3049 2.41537 23.5932 3.1409 23.5932H20.8578C21.5833 23.5932 22.2791 23.3049 22.7922 22.7919C23.3052 22.2789 23.5934 21.5831 23.5934 20.8575V3.14065C23.5934 2.41545 23.3054 1.71991 22.7928 1.20694C22.2802 0.693963 21.5849 0.405526 20.8596 0.405029ZM14.974 6.17253H20.2953V7.76253H14.974V6.17253ZM12.2834 14.505C12.2834 18.4425 8.18652 18.3132 8.18652 18.3132H1.47402V5.41316H8.18652C10.2265 5.41316 11.8371 6.53815 11.8371 8.84816C11.8371 11.1582 9.8684 11.3025 9.8684 11.3025C12.4634 11.3025 12.2834 14.505 12.2834 14.505ZM22.2378 14.295H15.5628C15.5628 16.6913 17.8334 16.545 17.8334 16.545C19.9765 16.545 19.8959 15.1575 19.8959 15.1575H22.1628C22.1628 18.84 17.749 18.5869 17.749 18.5869C12.4521 18.5869 12.7934 13.6557 12.7934 13.6557C12.7934 13.6557 12.7934 8.70003 17.749 8.70003C22.9709 8.69628 22.2396 14.295 22.2396 14.295H22.2378Z" fill="#17141F"/>
</g>
<defs>
<clipPath id="clip0_507_214">
<rect width="24" height="24" fill="white"/>
</clipPath>
</defs>
</svg>
