<svg width="68" height="68" viewBox="0 0 68 68" fill="none" xmlns="http://www.w3.org/2000/svg">
<rect x="2" y="2" width="64" height="64" rx="6" fill="url(#paint0_linear_586_40)" stroke="url(#paint1_linear_586_40)" stroke-width="3"/>
<path d="M51.0837 32.4189L35.582 16.9181C34.6899 16.0254 33.242 16.0254 32.3485 16.9181L29.1301 20.1372L33.2133 24.2204C34.1625 23.9001 35.2504 24.115 36.0067 24.8712C36.3671 25.232 36.6187 25.6869 36.7328 26.1839C36.8468 26.6809 36.8187 27.2 36.6516 27.6818L40.5868 31.6176C41.5389 31.2894 42.6377 31.5014 43.3977 32.2631C44.4608 33.3253 44.4608 35.0474 43.3977 36.1103C43.145 36.363 42.8451 36.5635 42.5149 36.7003C42.1847 36.8371 41.8309 36.9076 41.4735 36.9076C41.1161 36.9076 40.7622 36.8371 40.4321 36.7003C40.1019 36.5635 39.802 36.363 39.5493 36.1103C39.1697 35.7305 38.911 35.2469 38.8057 34.7203C38.7003 34.1938 38.7531 33.6479 38.9573 33.1512L35.2875 29.4812L35.287 39.1396C35.5532 39.2707 35.7963 39.4444 36.0067 39.6537C37.0695 40.716 37.0695 42.4376 36.0067 43.5021C34.9439 44.5644 33.2212 44.5644 32.1595 43.5021C31.0969 42.4378 31.0097 40.7163 32.072 39.6537C32.3347 39.3913 32.5937 39.1931 32.875 39.0603V29.3125C32.5937 29.1797 32.335 28.9828 32.0717 28.7187C31.2671 27.9144 31.1166 26.7331 31.5295 25.7442L27.5264 21.7187L16.9081 32.3471C16.0152 33.2407 16.0208 34.6886 16.9138 35.5815L32.4179 51.0823C33.3104 51.975 34.7593 51.975 35.6532 51.0823L51.0825 35.6535C51.9755 34.7603 51.9763 33.3116 51.0837 32.4189V32.4189Z" fill="#F1F1F1"/>
<defs>
<linearGradient id="paint0_linear_586_40" x1="66" y1="66" x2="2" y2="2" gradientUnits="userSpaceOnUse">
<stop stop-color="#732EB8"/>
<stop offset="1" stop-color="#732EB8" stop-opacity="0"/>
</linearGradient>
<linearGradient id="paint1_linear_586_40" x1="66" y1="66" x2="2" y2="2" gradientUnits="userSpaceOnUse">
<stop stop-color="#732EB8"/>
<stop offset="1" stop-color="#732EB8" stop-opacity="0"/>
</linearGradient>
</defs>
</svg>
