<svg width="68" height="68" viewBox="0 0 68 68" fill="none" xmlns="http://www.w3.org/2000/svg">
<g id="js">
<rect id="Rectangle 64" x="2" y="2" width="64" height="64" rx="6" fill="url(#paint0_linear_585_37)" stroke="url(#paint1_linear_585_37)" stroke-width="3"/>
<g id="javascript-plain 1" clip-path="url(#clip0_585_37)">
<path id="Vector" d="M16.5625 16.2812V51.4375H51.7188V16.2812H16.5625ZM35.1585 46.238C34.6396 47.2924 33.649 47.9852 32.5012 48.3196C30.7375 48.7246 29.0506 48.4937 27.7956 47.7405C26.9558 47.2252 26.2999 46.4321 25.8547 45.5183L28.5322 43.8786C28.5556 43.8885 28.6259 44.0156 28.7198 44.1798C29.0613 44.7519 29.3557 45.1569 29.9345 45.4413C30.5032 45.6353 31.7517 45.7593 32.2338 44.7587C32.5282 44.2496 32.4346 42.6133 32.4346 40.8029C32.4343 37.958 32.4475 35.125 32.4475 32.3125H35.7407C35.7407 35.4062 35.7575 38.3363 35.7407 41.3553C35.7477 43.2059 35.9083 44.8557 35.1585 46.238ZM48.8199 45.3077C47.6752 49.2232 41.2931 49.3503 38.7427 46.7634C38.2038 46.1545 37.8661 45.8364 37.5446 45.1336C38.8999 44.3539 38.8999 44.3539 40.2187 43.5909C40.9351 44.692 41.5974 45.2975 42.7891 45.5453C44.4057 45.7428 46.0322 45.1873 45.6674 43.4702C45.2925 42.0679 42.3571 41.7268 40.3593 40.2272C38.3313 38.8651 37.8559 35.5553 39.5226 33.6642C40.0781 32.9647 41.0253 32.4427 42.0193 32.1918L43.0565 32.0577C45.0481 32.0175 46.2929 32.5434 47.2067 33.5638C47.4609 33.8214 47.6685 34.0993 48.0566 34.7014C46.9957 35.3776 46.9991 35.3711 45.4795 36.3549C45.1549 35.6557 44.6163 35.217 44.0471 35.0263C43.1634 34.7585 42.0491 35.0496 41.8179 35.9834C41.7377 36.2711 41.7543 36.5388 41.8818 37.0142C42.2398 37.8306 43.4413 38.1856 44.519 38.6808C47.6215 39.9392 48.6692 41.2883 48.9268 42.8943C49.1748 44.2769 48.8669 45.1738 48.8199 45.3077V45.3077Z" fill="#F1F1F1"/>
</g>
</g>
<defs>
<linearGradient id="paint0_linear_585_37" x1="2" y1="2" x2="66" y2="68.5" gradientUnits="userSpaceOnUse">
<stop stop-color="#732EB8"/>
<stop offset="1" stop-color="#732EB8" stop-opacity="0"/>
</linearGradient>
<linearGradient id="paint1_linear_585_37" x1="2" y1="2" x2="66" y2="68.5" gradientUnits="userSpaceOnUse">
<stop stop-color="#732EB8"/>
<stop offset="1" stop-color="#732EB8" stop-opacity="0"/>
</linearGradient>
<clipPath id="clip0_585_37">
<rect width="36" height="36" fill="white" transform="translate(16 16)"/>
</clipPath>
</defs>
</svg>
