<svg width="468" height="68" viewBox="0 0 468 68" fill="none" xmlns="http://www.w3.org/2000/svg">
<rect x="2" y="2" width="64" height="64" rx="6" fill="url(#paint0_linear_578_29)" stroke="url(#paint1_linear_578_29)" stroke-width="3"/>
<rect x="102" y="2" width="64" height="64" rx="6" fill="url(#paint2_linear_578_29)" stroke="url(#paint3_linear_578_29)" stroke-width="3"/>
<rect x="202" y="2" width="64" height="64" rx="6" fill="url(#paint4_linear_578_29)" stroke="url(#paint5_linear_578_29)" stroke-width="3"/>
<rect x="302" y="2" width="64" height="64" rx="6" fill="url(#paint6_linear_578_29)" stroke="url(#paint7_linear_578_29)" stroke-width="3"/>
<rect x="402" y="2" width="64" height="64" rx="6" fill="url(#paint8_linear_578_29)" stroke="url(#paint9_linear_578_29)" stroke-width="3"/>
<g clip-path="url(#clip0_578_29)">
<rect width="36" height="36" transform="translate(216 14)" fill="#17141F"/>
<path d="M216.562 14.2812V49.4375H251.719V14.2812H216.562ZM235.158 44.238C234.64 45.2924 233.649 45.9852 232.501 46.3196C230.738 46.7246 229.051 46.4937 227.796 45.7405C226.956 45.2252 226.3 44.4321 225.855 43.5183L228.532 41.8786C228.556 41.8885 228.626 42.0156 228.72 42.1798C229.061 42.7519 229.356 43.1569 229.935 43.4412C230.503 43.6353 231.752 43.7593 232.234 42.7587C232.528 42.2496 232.435 40.6133 232.435 38.8029C232.434 35.958 232.448 33.125 232.448 30.3125H235.741C235.741 33.4062 235.758 36.3363 235.741 39.3552C235.748 41.2059 235.908 42.8557 235.158 44.238ZM248.82 43.3077C247.675 47.2232 241.293 47.3503 238.743 44.7634C238.204 44.1545 237.866 43.8364 237.545 43.1336C238.9 42.3539 238.9 42.3539 240.219 41.5909C240.935 42.692 241.597 43.2975 242.789 43.5453C244.406 43.7428 246.032 43.1873 245.667 41.4702C245.292 40.0679 242.357 39.7268 240.359 38.2272C238.331 36.8651 237.856 33.5553 239.523 31.6642C240.078 30.9647 241.025 30.4427 242.019 30.1918L243.057 30.0577C245.048 30.0175 246.293 30.5434 247.207 31.5638C247.461 31.8214 247.668 32.0993 248.057 32.7014C246.996 33.3776 246.999 33.3711 245.479 34.3549C245.155 33.6557 244.616 33.217 244.047 33.0263C243.163 32.7585 242.049 33.0496 241.818 33.9834C241.738 34.2711 241.754 34.5388 241.882 35.0142C242.24 35.8306 243.441 36.1856 244.519 36.6808C247.622 37.9392 248.669 39.2883 248.927 40.8943C249.175 42.2769 248.867 43.1738 248.82 43.3077Z" fill="#F1F1F1"/>
</g>
<path d="M18.54 14.5625L21.3539 46.0887L33.9809 49.5764L46.6428 46.0926L49.4595 14.5625H18.54ZM43.6067 22.0266L43.4304 24.0437L43.3528 24.9687H28.5407L28.8943 28.9062H43.0006L42.9061 29.8825L41.9969 40.0409L41.9299 40.6794L33.9998 42.8588V42.8593L33.9902 42.8644L26.0654 40.7767L25.5274 34.8125H29.4129L29.6882 37.8835L33.9877 39.0312H33.9998V38.8777L38.3184 37.7878L38.7695 32.8437H25.3544L24.403 22.1233L24.3104 21.0312H43.6995L43.6067 22.0266Z" fill="#F1F1F1"/>
<path d="M116.737 16.2812L119.879 48.0296L133.979 51.5677L148.118 48.0167L151.262 16.2812H116.737ZM144.734 23.5549L143.689 34.1313L143.692 34.1884L143.687 34.3198V34.3187L142.944 41.7138L142.862 42.3708L134 44.577V44.5773L133.993 44.5826L125.146 42.3641L124.547 36.25H128.885L129.193 39.3589L134.001 40.5317L134 40.534V40.5334L138.826 39.344L139.336 34.2812H129.247L129.161 33.4254L128.964 31.4204L128.86 30.3438H139.719L140.114 26.4062H123.575L123.488 25.551L123.291 23.5454L123.188 22.4688H144.838L144.734 23.5549Z" fill="#F1F1F1"/>
<path fill-rule="evenodd" clip-rule="evenodd" d="M314.381 29.7939C314.381 29.9916 314.446 30.1221 314.482 30.2489C314.718 31.0738 315.226 31.7817 315.828 32.4275C316.686 33.3477 317.737 34.0886 318.814 34.7852C319.748 35.3893 320.701 35.98 321.638 36.5796C321.799 36.6825 321.951 36.8009 322.126 36.9272C321.976 37.0003 321.851 37.0648 321.721 37.1241C320.483 37.6888 319.293 38.3219 318.196 39.0889C317.535 39.5513 316.895 40.0426 316.444 40.6847C315.717 41.7175 315.46 42.8177 316.001 43.9925C316.16 44.3356 316.401 44.6321 316.741 44.8512C316.851 44.922 316.975 44.9923 317.104 45.0199C317.435 45.0899 317.772 45.1358 318.106 45.1912L319.054 45.1906C320.102 45.1065 321.056 44.7834 321.919 44.2479C323.266 43.4109 324.174 42.2887 324.564 40.8484C324.848 39.8016 324.86 38.7537 324.525 37.7116C324.493 37.6151 324.456 37.5199 324.415 37.4264C324.374 37.3328 324.326 37.2417 324.27 37.1249L326.419 36.0129L326.451 36.0376C326.412 36.1527 326.37 36.2674 326.335 36.3836C326.08 37.2228 325.91 38.0767 325.971 38.9477C326.036 39.8758 326.324 40.7446 326.927 41.52C327.416 42.1472 328.579 42.1706 329.097 41.5411C329.281 41.3175 329.46 41.0838 329.594 40.8343C329.944 40.1833 330.269 39.5206 330.603 38.8625L330.662 38.7421C330.638 39.0538 330.61 39.3274 330.597 39.6013C330.577 40.0291 330.605 40.4544 330.767 40.8613C330.906 41.2095 331.143 41.4697 331.586 41.5155C331.889 41.5467 332.131 41.4219 332.353 41.2635C332.699 41.018 332.985 40.7119 333.194 40.3638C333.788 39.382 334.398 38.406 334.937 37.3994C335.519 36.3107 336.029 35.1902 336.57 34.0829L336.659 33.8866C336.787 34.3386 336.876 34.7813 337.04 35.2003C337.231 35.6866 337.466 36.1614 337.723 36.6229C337.845 36.8409 337.831 36.9823 337.662 37.1652C336.957 37.9302 336.265 38.7044 335.571 39.4779C335.418 39.6486 335.265 39.8224 335.137 40.0089C335.06 40.1266 335.009 40.257 334.987 40.3925C334.966 40.5173 334.999 40.6447 335.079 40.748C335.16 40.8513 335.282 40.9226 335.419 40.9468C335.697 41.0007 335.982 41.019 336.266 41.0011C337.233 40.937 338.112 40.6313 338.889 40.1132C339.896 39.4422 340.219 38.5264 339.975 37.4411C339.909 37.1466 339.792 36.8603 339.679 36.5765C339.628 36.4485 339.625 36.3588 339.717 36.2396C340.522 35.2054 341.21 34.1082 341.849 32.9858C341.874 32.9416 341.9 32.8975 341.945 32.8502C342.152 33.8205 342.464 34.7557 343.022 35.6042C342.737 35.8514 342.455 36.0756 342.2 36.3225C341.638 36.8665 341.15 37.4571 340.896 38.1774C340.786 38.4879 340.702 38.8034 340.751 39.135C340.827 39.65 341.296 39.9847 341.858 39.8674C343.063 39.6165 344.102 39.1058 344.862 38.201C345.373 37.5918 345.42 36.9123 345.206 36.2005C345.147 36.007 345.077 35.8166 345.002 35.5947C345.3 35.5117 345.589 35.4121 345.889 35.3505C347.445 35.031 348.984 35.0867 350.483 35.5924C351.359 35.8877 352.066 36.3819 352.485 37.1593C352.997 38.1096 352.714 39.0113 351.719 39.612C351.626 39.668 351.52 39.7122 351.443 39.7822C351.418 39.8079 351.4 39.8379 351.389 39.8703C351.378 39.9028 351.375 39.9369 351.379 39.9706C351.386 40.0052 351.487 40.0485 351.546 40.048C351.873 40.0457 352.138 39.8913 352.393 39.7327C353.031 39.3353 353.496 38.8006 353.597 38.0967L353.616 38.0438L353.592 37.5853C353.583 37.5589 353.6 37.5327 353.597 37.5128C353.462 36.4876 352.853 35.6925 351.968 35.0693C350.943 34.3479 349.733 34.0509 348.453 34.0039C347.415 33.9637 346.378 34.1073 345.401 34.4266C345.121 34.518 344.843 34.6263 344.561 34.7284C344.524 34.6668 344.483 34.6077 344.45 34.5467C344.16 34.0135 343.81 33.5038 343.732 32.8924C343.677 32.4582 343.61 32.0245 343.724 31.595C343.835 31.1818 343.978 30.7757 344.114 30.3682C344.183 30.1584 344.134 30.0408 343.912 29.9463C343.834 29.9115 343.752 29.8871 343.666 29.8737C343.119 29.8023 342.58 29.8431 342.05 29.9818C341.863 30.031 341.726 30.1255 341.685 30.3122C341.661 30.4194 341.613 30.522 341.579 30.6278C341.441 31.0674 341.342 31.5154 341.119 31.9342C340.558 32.9847 339.918 33.9955 339.263 34.999C339.192 35.1073 339.117 35.2136 339.028 35.3449C338.798 34.9118 338.553 34.5231 338.478 34.0675C338.394 33.5522 338.328 33.0378 338.471 32.5265C338.576 32.1451 338.715 31.7708 338.842 31.3945C338.903 31.2156 338.875 31.1217 338.695 31.0274C338.604 30.9799 338.501 30.9377 338.399 30.9239C337.838 30.8471 337.265 30.8892 336.726 31.0471C336.556 31.0966 336.467 31.1953 336.415 31.3528C336.262 31.8175 336.132 32.2933 335.918 32.7352C335.051 34.5239 334.16 36.3034 333.269 38.0826C333.083 38.4541 332.865 38.8127 332.655 39.1744C332.602 39.2661 332.525 39.3468 332.458 39.4329C332.405 39.3763 332.385 39.3375 332.385 39.2987C332.386 39.0701 332.356 38.8347 332.405 38.6136C332.553 37.945 332.718 37.2793 332.898 36.617C333.045 36.0697 333.216 35.5274 333.378 34.9838C333.433 34.8018 333.434 34.6317 333.289 34.4787C333.045 34.2224 332.535 34.1662 332.232 34.3636L332.098 34.4317L332.124 34.2376C332.188 33.8217 332.201 33.4071 332.074 32.9973C331.916 32.4866 331.511 32.1927 330.922 32.209C330.648 32.2166 330.36 32.2587 330.106 32.3487C329.037 32.7256 328.216 33.393 327.516 34.196C327.451 34.2706 327.371 34.333 327.28 34.3799C326.376 34.8311 325.469 35.2766 324.562 35.7237L323.553 36.2213C323.282 35.989 323.036 35.7479 322.757 35.5435C321.905 34.918 321.039 34.3079 320.181 33.6895C319.421 33.1413 318.684 32.5704 318.12 31.8445C317.701 31.3045 317.43 30.7136 317.404 30.0459C317.371 29.1951 317.64 28.4177 318.121 27.6941C318.736 26.7682 319.576 26.0251 320.499 25.3521C321.476 24.6405 322.532 24.0364 323.627 23.4849C325.158 22.7134 326.734 22.0305 328.423 21.5797C330.155 21.1173 331.912 20.8527 333.724 21.0372C334.437 21.1097 335.129 21.2565 335.764 21.5701C336.251 21.81 336.65 22.1242 336.835 22.6153C337.018 23.0984 337.013 23.5881 336.886 24.0789C336.628 25.0728 336.023 25.8921 335.262 26.6242C334.014 27.8243 332.492 28.6413 330.778 29.181C329.792 29.4918 328.767 29.6886 327.726 29.7669C326.873 29.8313 326.038 29.7632 325.231 29.4963C324.696 29.3194 324.231 29.0488 323.856 28.6562C323.789 28.5859 323.704 28.5097 323.579 28.5755C323.457 28.6402 323.435 28.7448 323.476 28.8508C323.545 29.0269 323.608 29.2103 323.714 29.3678C323.982 29.7629 324.373 30.0495 324.803 30.2953C325.629 30.7681 326.552 30.927 327.509 30.9639C328.961 31.0204 330.379 30.8252 331.776 30.4745C333.771 29.9739 335.505 29.0896 336.896 27.6946C338.054 26.5331 338.881 25.2222 339.058 23.6393C339.145 22.8667 339.053 22.1098 338.651 21.405C338.215 20.6414 337.522 20.0736 336.693 19.6824C335.486 19.1128 334.184 18.7812 332.839 18.7812H331.492C329.864 18.7812 328.29 19.2012 326.76 19.7021C325.602 20.0815 324.466 20.5292 323.364 21.0248C320.963 22.1045 318.727 23.4064 316.891 25.1966C315.976 26.0884 315.201 27.0725 314.755 28.2312C314.621 28.5772 314.505 28.9288 314.408 29.2848M323.108 39.4135C323.004 40.6676 322.372 41.6843 321.34 42.5078C320.759 42.9707 320.093 43.3003 319.318 43.4162C319.036 43.4581 318.749 43.4683 318.476 43.3633C318.087 43.2137 318 42.9029 317.992 42.5719C317.981 42.0443 318.186 41.5673 318.467 41.1133C318.835 40.5216 319.374 40.0705 319.949 39.6492C320.855 38.9851 321.838 38.4232 322.845 37.8928L322.921 37.8646C323.077 38.3821 323.151 38.8932 323.108 39.4135ZM330.97 33.9631C330.896 34.3636 330.804 34.7644 330.674 35.1525C330.225 36.4961 329.648 37.798 329.024 39.0824C328.908 39.3201 328.741 39.5369 328.595 39.7622C328.57 39.7969 328.54 39.8284 328.506 39.8562C328.326 40.0168 328.154 40.0083 328.063 39.7982C327.957 39.5541 327.891 39.2928 327.835 39.0343C327.797 38.8608 327.806 38.6786 327.795 38.5008C327.807 37.2369 328.235 36.0883 328.962 35.0189C329.262 34.5779 329.588 34.1578 330.086 33.8787C330.242 33.792 330.409 33.7252 330.585 33.6802C330.851 33.613 331.014 33.7235 330.97 33.9631ZM336.333 40.1135L338.261 38.0877C338.341 38.84 336.921 40.3419 336.333 40.1135ZM342.491 38.7503C342.354 38.8206 342.206 38.8712 342.066 38.9362C341.938 38.9958 341.896 38.9356 341.892 38.8366C341.891 38.7681 341.9 38.6997 341.921 38.6338C342.182 37.8075 342.661 37.1022 343.374 36.5284L343.424 36.5053C343.763 37.3589 343.371 38.2963 342.491 38.7503Z" fill="#F1F1F1"/>
<path d="M434 37.5625C435.968 37.5625 437.563 35.9675 437.563 34C437.563 32.0325 435.968 30.4375 434 30.4375C432.032 30.4375 430.438 32.0325 430.438 34C430.438 35.9675 432.032 37.5625 434 37.5625Z" fill="#F1F1F1"/>
<path d="M447.531 28.125C446.844 27.875 446.125 27.625 445.375 27.4063C445.563 26.6563 445.719 25.9062 445.844 25.1875C446.5 21.0625 445.781 18.1562 443.781 17.0312C443.188 16.6875 442.531 16.5312 441.781 16.5312C439.594 16.5312 436.812 18.1562 434 20.875C431.187 18.1562 428.406 16.5312 426.219 16.5312C425.469 16.5312 424.813 16.6875 424.219 17.0312C422.219 18.1875 421.5 21.0937 422.156 25.1875C422.281 25.9062 422.438 26.6563 422.625 27.4063C421.875 27.625 421.156 27.8437 420.469 28.125C416.563 29.625 414.438 31.6875 414.438 34C414.438 36.3125 416.594 38.375 420.469 39.875C421.156 40.125 421.875 40.375 422.625 40.5938C422.438 41.3438 422.281 42.0937 422.156 42.8125C421.5 46.9375 422.219 49.8438 424.219 50.9688C424.813 51.3125 425.469 51.4688 426.219 51.4688C428.437 51.4688 431.219 49.8438 434 47.125C436.812 49.8438 439.594 51.4688 441.781 51.4688C442.531 51.4688 443.188 51.3125 443.781 50.9688C445.781 49.8125 446.5 46.9062 445.844 42.8125C445.719 42.0937 445.563 41.3438 445.375 40.5938C446.125 40.375 446.844 40.1563 447.531 39.875C451.438 38.375 453.562 36.3125 453.562 34C453.562 31.6875 451.438 29.625 447.531 28.125ZM442.906 18.5937C444.187 19.3437 444.625 21.6562 444.094 24.9375C444 25.5937 443.844 26.2813 443.656 27C442.031 26.625 440.313 26.375 438.5 26.2187C437.437 24.7187 436.344 23.375 435.25 22.1562C437.562 19.875 439.906 18.3125 441.812 18.3125C442.219 18.3125 442.594 18.4062 442.906 18.5937ZM439.406 37.125C438.844 38.125 438.187 39.125 437.5 40.125C436.344 40.2188 435.187 40.25 434 40.25C432.781 40.25 431.625 40.2188 430.5 40.125C429.812 39.125 429.187 38.125 428.625 37.125C428.031 36.0938 427.469 35.0313 426.969 34C427.469 32.9688 428.031 31.9063 428.625 30.875C429.187 29.875 429.844 28.875 430.531 27.875C431.688 27.7813 432.844 27.75 434.031 27.75C435.25 27.75 436.406 27.7813 437.531 27.875C438.219 28.875 438.844 29.875 439.406 30.875C440 31.9063 440.562 32.9688 441.062 34C440.531 35.0313 440 36.0625 439.406 37.125ZM442 36.0937C442.469 37.1875 442.844 38.25 443.188 39.3125C442.125 39.5625 441 39.75 439.812 39.9063C440.187 39.3125 440.594 38.6875 440.937 38.0313C441.312 37.375 441.656 36.7187 442 36.0937ZM434 44.5625C433.25 43.75 432.531 42.875 431.844 41.9688C432.562 42 433.281 42.0312 434 42.0312C434.719 42.0312 435.438 42 436.156 41.9688C435.469 42.875 434.75 43.75 434 44.5625ZM428.188 39.875C427 39.7188 425.875 39.5313 424.812 39.2813C425.156 38.25 425.531 37.1562 426 36.0625C426.344 36.6875 426.687 37.3437 427.062 37.9687C427.437 38.6562 427.812 39.25 428.188 39.875ZM426 31.9062C425.531 30.8125 425.156 29.75 424.812 28.6875C425.875 28.4375 427 28.25 428.188 28.0938C427.812 28.6875 427.406 29.3125 427.062 29.9688C426.687 30.625 426.344 31.2812 426 31.9062ZM434 23.4375C434.75 24.25 435.469 25.125 436.156 26.0312C435.438 26 434.719 25.9687 434 25.9687C433.281 25.9687 432.562 26 431.844 26.0312C432.531 25.125 433.25 24.25 434 23.4375ZM440.937 30L439.812 28.125C441 28.2812 442.125 28.4687 443.188 28.7188C442.844 29.75 442.469 30.8438 442 31.9375C441.656 31.2813 441.312 30.625 440.937 30ZM423.906 24.9375C423.375 21.6562 423.812 19.3437 425.094 18.5937C425.406 18.4062 425.781 18.3125 426.187 18.3125C428.062 18.3125 430.406 19.8437 432.75 22.1562C431.656 23.3437 430.562 24.7187 429.5 26.2187C427.687 26.375 425.969 26.6562 424.344 27C424.156 26.2813 424.031 25.5937 423.906 24.9375ZM416.187 34C416.187 32.5313 417.969 30.9688 421.094 29.8125C421.719 29.5625 422.406 29.3438 423.094 29.1563C423.594 30.7188 424.219 32.375 424.969 34.0312C424.219 35.6875 423.563 37.3125 423.094 38.875C418.781 37.625 416.187 35.75 416.187 34ZM425.094 49.4063C423.812 48.6563 423.375 46.3438 423.906 43.0625C424 42.4063 424.156 41.7188 424.344 41C425.969 41.375 427.687 41.625 429.5 41.7813C430.562 43.2813 431.656 44.625 432.75 45.8438C430.437 48.125 428.094 49.6875 426.187 49.6875C425.781 49.6875 425.406 49.5938 425.094 49.4063ZM444.094 43.0625C444.625 46.3438 444.187 48.6563 442.906 49.4063C442.594 49.5938 442.219 49.6875 441.812 49.6875C439.937 49.6875 437.594 48.1563 435.25 45.8438C436.344 44.6563 437.437 43.2813 438.5 41.7813C440.313 41.625 442.031 41.3438 443.656 41C443.844 41.7188 443.969 42.4063 444.094 43.0625ZM446.906 38.1875C446.281 38.4375 445.594 38.6563 444.906 38.8438C444.406 37.2813 443.781 35.625 443.031 33.9688C443.781 32.3125 444.438 30.6875 444.906 29.125C449.219 30.375 451.812 32.25 451.812 34C451.812 35.4688 450 37.0313 446.906 38.1875Z" fill="#F1F1F1"/>
<defs>
<linearGradient id="paint0_linear_578_29" x1="2" y1="2" x2="66" y2="68.5" gradientUnits="userSpaceOnUse">
<stop stop-color="#732EB8"/>
<stop offset="1" stop-color="#732EB8" stop-opacity="0"/>
</linearGradient>
<linearGradient id="paint1_linear_578_29" x1="2" y1="2" x2="66" y2="68.5" gradientUnits="userSpaceOnUse">
<stop stop-color="#732EB8"/>
<stop offset="1" stop-color="#732EB8" stop-opacity="0"/>
</linearGradient>
<linearGradient id="paint2_linear_578_29" x1="102" y1="2" x2="166" y2="68.5" gradientUnits="userSpaceOnUse">
<stop stop-color="#732EB8"/>
<stop offset="1" stop-color="#732EB8" stop-opacity="0"/>
</linearGradient>
<linearGradient id="paint3_linear_578_29" x1="102" y1="2" x2="166" y2="68.5" gradientUnits="userSpaceOnUse">
<stop stop-color="#732EB8"/>
<stop offset="1" stop-color="#732EB8" stop-opacity="0"/>
</linearGradient>
<linearGradient id="paint4_linear_578_29" x1="202" y1="2" x2="266" y2="68.5" gradientUnits="userSpaceOnUse">
<stop stop-color="#732EB8"/>
<stop offset="1" stop-color="#732EB8" stop-opacity="0"/>
</linearGradient>
<linearGradient id="paint5_linear_578_29" x1="202" y1="2" x2="266" y2="68.5" gradientUnits="userSpaceOnUse">
<stop stop-color="#732EB8"/>
<stop offset="1" stop-color="#732EB8" stop-opacity="0"/>
</linearGradient>
<linearGradient id="paint6_linear_578_29" x1="302" y1="2" x2="366" y2="68.5" gradientUnits="userSpaceOnUse">
<stop stop-color="#732EB8"/>
<stop offset="1" stop-color="#732EB8" stop-opacity="0"/>
</linearGradient>
<linearGradient id="paint7_linear_578_29" x1="302" y1="2" x2="366" y2="68.5" gradientUnits="userSpaceOnUse">
<stop stop-color="#732EB8"/>
<stop offset="1" stop-color="#732EB8" stop-opacity="0"/>
</linearGradient>
<linearGradient id="paint8_linear_578_29" x1="402" y1="2" x2="466" y2="68.5" gradientUnits="userSpaceOnUse">
<stop stop-color="#732EB8"/>
<stop offset="1" stop-color="#732EB8" stop-opacity="0"/>
</linearGradient>
<linearGradient id="paint9_linear_578_29" x1="402" y1="2" x2="466" y2="68.5" gradientUnits="userSpaceOnUse">
<stop stop-color="#732EB8"/>
<stop offset="1" stop-color="#732EB8" stop-opacity="0"/>
</linearGradient>
<clipPath id="clip0_578_29">
<rect width="36" height="36" fill="white" transform="translate(216 14)"/>
</clipPath>
</defs>
</svg>
