<svg width="68" height="68" viewBox="0 0 68 68" fill="none" xmlns="http://www.w3.org/2000/svg">
<g id="react">
<rect id="Rectangle 99" x="2" y="2" width="64" height="64" rx="6" fill="url(#paint0_linear_585_39)" stroke="url(#paint1_linear_585_39)" stroke-width="3"/>
<g id="react-original 1">
<g id="Group">
<path id="Vector" d="M34 37.5625C35.9675 37.5625 37.5625 35.9675 37.5625 34C37.5625 32.0325 35.9675 30.4375 34 30.4375C32.0325 30.4375 30.4375 32.0325 30.4375 34C30.4375 35.9675 32.0325 37.5625 34 37.5625Z" fill="#F1F1F1"/>
<path id="Vector_2" d="M47.5313 28.125C46.8438 27.875 46.125 27.625 45.375 27.4063C45.5625 26.6563 45.7187 25.9062 45.8438 25.1875C46.5 21.0625 45.7813 18.1562 43.7813 17.0312C43.1875 16.6875 42.5313 16.5312 41.7812 16.5312C39.5938 16.5312 36.8125 18.1562 34 20.875C31.1875 18.1562 28.4062 16.5312 26.2187 16.5312C25.4687 16.5312 24.8125 16.6875 24.2188 17.0312C22.2188 18.1875 21.5 21.0937 22.1563 25.1875C22.2813 25.9062 22.4375 26.6563 22.625 27.4063C21.875 27.625 21.1563 27.8437 20.4688 28.125C16.5625 29.625 14.4375 31.6875 14.4375 34C14.4375 36.3125 16.5938 38.375 20.4688 39.875C21.1563 40.125 21.875 40.375 22.625 40.5938C22.4375 41.3438 22.2813 42.0937 22.1563 42.8125C21.5 46.9375 22.2188 49.8438 24.2188 50.9688C24.8125 51.3125 25.4687 51.4688 26.2187 51.4688C28.4375 51.4688 31.2187 49.8438 34 47.125C36.8125 49.8438 39.5938 51.4688 41.7812 51.4688C42.5313 51.4688 43.1875 51.3125 43.7813 50.9688C45.7813 49.8125 46.5 46.9062 45.8438 42.8125C45.7187 42.0937 45.5625 41.3438 45.375 40.5938C46.125 40.375 46.8438 40.1563 47.5313 39.875C51.4375 38.375 53.5625 36.3125 53.5625 34C53.5625 31.6875 51.4375 29.625 47.5313 28.125ZM42.9062 18.5937C44.1875 19.3437 44.625 21.6562 44.0938 24.9375C44 25.5937 43.8438 26.2813 43.6562 27C42.0313 26.625 40.3125 26.375 38.5 26.2187C37.4375 24.7187 36.3437 23.375 35.25 22.1562C37.5625 19.875 39.9062 18.3125 41.8125 18.3125C42.2187 18.3125 42.5937 18.4062 42.9062 18.5937ZM39.4063 37.125C38.8438 38.125 38.1875 39.125 37.5 40.125C36.3437 40.2188 35.1875 40.25 34 40.25C32.7812 40.25 31.625 40.2188 30.5 40.125C29.8125 39.125 29.1875 38.125 28.625 37.125C28.0312 36.0938 27.4687 35.0313 26.9687 34C27.4687 32.9688 28.0312 31.9063 28.625 30.875C29.1875 29.875 29.8437 28.875 30.5312 27.875C31.6875 27.7813 32.8437 27.75 34.0312 27.75C35.25 27.75 36.4063 27.7813 37.5313 27.875C38.2188 28.875 38.8438 29.875 39.4063 30.875C40 31.9063 40.5625 32.9688 41.0625 34C40.5312 35.0313 40 36.0625 39.4063 37.125ZM42 36.0937C42.4687 37.1875 42.8437 38.25 43.1875 39.3125C42.125 39.5625 41 39.75 39.8125 39.9063C40.1875 39.3125 40.5937 38.6875 40.9375 38.0313C41.3125 37.375 41.6562 36.7187 42 36.0937ZM34 44.5625C33.25 43.75 32.5312 42.875 31.8437 41.9688C32.5625 42 33.2812 42.0312 34 42.0312C34.7187 42.0312 35.4375 42 36.1562 41.9688C35.4687 42.875 34.75 43.75 34 44.5625ZM28.1875 39.875C27 39.7188 25.875 39.5313 24.8125 39.2813C25.1562 38.25 25.5312 37.1562 26 36.0625C26.3438 36.6875 26.6875 37.3437 27.0625 37.9687C27.4375 38.6562 27.8125 39.25 28.1875 39.875ZM26 31.9062C25.5312 30.8125 25.1562 29.75 24.8125 28.6875C25.875 28.4375 27 28.25 28.1875 28.0938C27.8125 28.6875 27.4062 29.3125 27.0625 29.9688C26.6875 30.625 26.3438 31.2812 26 31.9062ZM34 23.4375C34.75 24.25 35.4687 25.125 36.1562 26.0312C35.4375 26 34.7187 25.9687 34 25.9687C33.2812 25.9687 32.5625 26 31.8437 26.0312C32.5312 25.125 33.25 24.25 34 23.4375ZM40.9375 30L39.8125 28.125C41 28.2812 42.125 28.4687 43.1875 28.7188C42.8437 29.75 42.4687 30.8438 42 31.9375C41.6562 31.2813 41.3125 30.625 40.9375 30ZM23.9063 24.9375C23.375 21.6562 23.8125 19.3437 25.0937 18.5937C25.4062 18.4062 25.7812 18.3125 26.1875 18.3125C28.0625 18.3125 30.4062 19.8437 32.75 22.1562C31.6562 23.3437 30.5625 24.7187 29.5 26.2187C27.6875 26.375 25.9687 26.6562 24.3437 27C24.1562 26.2813 24.0313 25.5937 23.9063 24.9375ZM16.1875 34C16.1875 32.5313 17.9688 30.9688 21.0938 29.8125C21.7188 29.5625 22.4063 29.3438 23.0938 29.1563C23.5938 30.7188 24.2187 32.375 24.9687 34.0312C24.2187 35.6875 23.5625 37.3125 23.0938 38.875C18.7813 37.625 16.1875 35.75 16.1875 34ZM25.0937 49.4063C23.8125 48.6563 23.375 46.3438 23.9063 43.0625C24 42.4063 24.1562 41.7188 24.3437 41C25.9687 41.375 27.6875 41.625 29.5 41.7813C30.5625 43.2813 31.6562 44.625 32.75 45.8438C30.4375 48.125 28.0937 49.6875 26.1875 49.6875C25.7812 49.6875 25.4062 49.5938 25.0937 49.4063ZM44.0938 43.0625C44.625 46.3438 44.1875 48.6563 42.9062 49.4063C42.5937 49.5938 42.2187 49.6875 41.8125 49.6875C39.9375 49.6875 37.5937 48.1563 35.25 45.8438C36.3437 44.6563 37.4375 43.2813 38.5 41.7813C40.3125 41.625 42.0313 41.3438 43.6562 41C43.8438 41.7188 43.9688 42.4063 44.0938 43.0625ZM46.9063 38.1875C46.2813 38.4375 45.5938 38.6563 44.9062 38.8438C44.4062 37.2813 43.7813 35.625 43.0312 33.9688C43.7813 32.3125 44.4375 30.6875 44.9062 29.125C49.2188 30.375 51.8125 32.25 51.8125 34C51.8125 35.4688 50 37.0313 46.9063 38.1875Z" fill="#F1F1F1"/>
</g>
</g>
</g>
<defs>
<linearGradient id="paint0_linear_585_39" x1="2" y1="2" x2="66" y2="68.5" gradientUnits="userSpaceOnUse">
<stop stop-color="#732EB8"/>
<stop offset="1" stop-color="#732EB8" stop-opacity="0"/>
</linearGradient>
<linearGradient id="paint1_linear_585_39" x1="2" y1="2" x2="66" y2="68.5" gradientUnits="userSpaceOnUse">
<stop stop-color="#732EB8"/>
<stop offset="1" stop-color="#732EB8" stop-opacity="0"/>
</linearGradient>
</defs>
</svg>
