<svg width="68" height="68" viewBox="0 0 68 68" fill="none" xmlns="http://www.w3.org/2000/svg">
<g id="sass">
<rect id="Rectangle 65" x="2" y="2" width="64" height="64" rx="6" fill="url(#paint0_linear_585_38)" stroke="url(#paint1_linear_585_38)" stroke-width="3"/>
<g id="sass-original 1">
<path id="Vector" fill-rule="evenodd" clip-rule="evenodd" d="M14.3809 29.7939C14.3809 29.9916 14.4455 30.1221 14.4818 30.2489C14.718 31.0738 15.2259 31.7817 15.8284 32.4275C16.6865 33.3477 17.7374 34.0886 18.814 34.7852C19.7477 35.3893 20.7005 35.98 21.638 36.5796C21.799 36.6825 21.9512 36.8009 22.1259 36.9272C21.9755 37.0003 21.8505 37.0648 21.7205 37.1241C20.4834 37.6888 19.293 38.3219 18.1959 39.0889C17.5346 39.5513 16.8952 40.0426 16.4437 40.6847C15.7171 41.7175 15.4599 42.8177 16.0015 43.9925C16.1596 44.3356 16.4009 44.6321 16.7412 44.8512C16.8515 44.922 16.9752 44.9923 17.1043 45.0199C17.4349 45.0899 17.7718 45.1358 18.1065 45.1912L19.0543 45.1906C20.1024 45.1065 21.0565 44.7834 21.9187 44.2479C23.2662 43.4109 24.174 42.2887 24.5643 40.8484C24.848 39.8016 24.8596 38.7537 24.5252 37.7116C24.4932 37.6151 24.4563 37.5199 24.4146 37.4264C24.374 37.3328 24.3262 37.2417 24.2699 37.1249L26.4187 36.0129L26.4509 36.0376C26.4118 36.1527 26.3702 36.2674 26.3349 36.3836C26.0796 37.2228 25.9099 38.0767 25.9709 38.9477C26.0359 39.8758 26.3237 40.7446 26.9274 41.52C27.4155 42.1472 28.5787 42.1706 29.0974 41.5411C29.2815 41.3175 29.4599 41.0838 29.594 40.8343C29.9443 40.1833 30.2687 39.5206 30.6034 38.8625L30.6618 38.7421C30.6377 39.0538 30.6096 39.3274 30.5968 39.6013C30.5768 40.0291 30.6046 40.4544 30.7671 40.8613C30.9062 41.2095 31.1427 41.4697 31.5859 41.5155C31.889 41.5468 32.1305 41.4219 32.3534 41.2635C32.6985 41.018 32.9847 40.7119 33.1943 40.3638C33.7884 39.382 34.3984 38.406 34.9368 37.3994C35.5193 36.3107 36.0287 35.1902 36.5696 34.0829L36.659 33.8866C36.7868 34.3386 36.8759 34.7813 37.0399 35.2003C37.2305 35.6866 37.4665 36.1614 37.7234 36.6229C37.8449 36.8409 37.8309 36.9823 37.6624 37.1652C36.9574 37.9302 36.2646 38.7044 35.5712 39.4779C35.4177 39.6486 35.2649 39.8224 35.1371 40.0089C35.0596 40.1266 35.0086 40.257 34.9871 40.3925C34.9656 40.5173 34.9986 40.6447 35.0792 40.748C35.1597 40.8513 35.2816 40.9226 35.4193 40.9468C35.6971 41.0007 35.982 41.019 36.2655 41.0011C37.2334 40.937 38.1121 40.6313 38.889 40.1132C39.8955 39.4422 40.2187 38.5264 39.9749 37.4411C39.909 37.1466 39.7924 36.8603 39.679 36.5765C39.628 36.4485 39.6246 36.3588 39.7174 36.2396C40.5221 35.2054 41.2096 34.1082 41.849 32.9858C41.8743 32.9416 41.9002 32.8975 41.9446 32.8502C42.1518 33.8205 42.4637 34.7557 43.0224 35.6042C42.7374 35.8514 42.4552 36.0756 42.1999 36.3225C41.6377 36.8665 41.1502 37.4571 40.8959 38.1774C40.7865 38.4879 40.7024 38.8034 40.7512 39.135C40.8268 39.65 41.2955 39.9847 41.8584 39.8674C43.0627 39.6165 44.1024 39.1058 44.8621 38.201C45.3734 37.5918 45.4199 36.9123 45.2059 36.2005C45.1471 36.007 45.0774 35.8166 45.0024 35.5947C45.2996 35.5117 45.5893 35.4121 45.889 35.3505C47.4449 35.031 48.984 35.0867 50.4834 35.5924C51.3587 35.8877 52.0659 36.3819 52.4852 37.1593C52.9974 38.1096 52.7143 39.0113 51.719 39.612C51.6262 39.668 51.5199 39.7122 51.443 39.7822C51.4184 39.8079 51.4 39.8379 51.389 39.8703C51.3779 39.9028 51.3745 39.9369 51.379 39.9706C51.3855 40.0052 51.4871 40.0485 51.5455 40.048C51.8727 40.0457 52.138 39.8913 52.3927 39.7327C53.0309 39.3353 53.4965 38.8006 53.5968 38.0967L53.6165 38.0438L53.5924 37.5853C53.5827 37.5589 53.5996 37.5327 53.5974 37.5128C53.4618 36.4876 52.8534 35.6925 51.9684 35.0693C50.9434 34.3479 49.733 34.0509 48.453 34.0039C47.4149 33.9637 46.3781 34.1073 45.4015 34.4266C45.1212 34.518 44.8434 34.6263 44.5615 34.7284C44.5237 34.6668 44.483 34.6078 44.4496 34.5467C44.1602 34.0135 43.8096 33.5038 43.7321 32.8924C43.6771 32.4582 43.6096 32.0245 43.7243 31.595C43.8346 31.1818 43.9784 30.7757 44.1137 30.3682C44.1834 30.1584 44.1343 30.0408 43.9118 29.9463C43.8343 29.9115 43.7515 29.8871 43.6662 29.8737C43.1193 29.8023 42.5799 29.8431 42.0502 29.9818C41.8627 30.031 41.7265 30.1255 41.6849 30.3122C41.6612 30.4194 41.6127 30.522 41.579 30.6278C41.4405 31.0674 41.3424 31.5154 41.1187 31.9342C40.558 32.9847 39.918 33.9955 39.263 34.999C39.1921 35.1073 39.1174 35.2136 39.028 35.3449C38.798 34.9118 38.5527 34.5231 38.4784 34.0675C38.3943 33.5522 38.328 33.0378 38.4705 32.5265C38.5765 32.1451 38.7149 31.7708 38.8424 31.3945C38.9027 31.2156 38.8749 31.1217 38.6949 31.0274C38.604 30.9799 38.5012 30.9377 38.3987 30.9239C37.8379 30.8471 37.265 30.8892 36.7255 31.0471C36.5559 31.0966 36.4668 31.1953 36.4149 31.3528C36.2624 31.8175 36.1324 32.2933 35.9184 32.7352C35.0515 34.5239 34.1596 36.3034 33.2687 38.0826C33.0827 38.4541 32.8649 38.8127 32.6552 39.1744C32.6021 39.2661 32.5246 39.3468 32.4584 39.4329C32.4052 39.3763 32.3846 39.3375 32.3849 39.2987C32.3865 39.0701 32.3562 38.8347 32.4046 38.6136C32.5533 37.945 32.7178 37.2793 32.8977 36.617C33.0446 36.0697 33.2155 35.5274 33.3784 34.9838C33.433 34.8018 33.434 34.6317 33.2887 34.4787C33.0446 34.2224 32.5346 34.1662 32.2321 34.3636L32.0984 34.4317L32.1243 34.2376C32.188 33.8217 32.2009 33.4071 32.074 32.9973C31.9159 32.4866 31.5109 32.1927 30.9221 32.209C30.6477 32.2166 30.3596 32.2587 30.1055 32.3487C29.0371 32.7256 28.2155 33.393 27.5162 34.196C27.4513 34.2706 27.371 34.333 27.2796 34.3799C26.3755 34.8311 25.4687 35.2766 24.5621 35.7237L23.553 36.2213C23.2824 35.989 23.0365 35.7479 22.7574 35.5435C21.9052 34.918 21.0393 34.3079 20.1812 33.6895C19.4205 33.1413 18.6837 32.5704 18.1199 31.8445C17.7005 31.3045 17.4302 30.7136 17.4043 30.0459C17.3715 29.1951 17.6396 28.4177 18.1209 27.6941C18.7365 26.7682 19.5762 26.0251 20.4993 25.3521C21.4759 24.6405 22.5321 24.0364 23.6268 23.4849C25.1584 22.7134 26.7337 22.0305 28.4227 21.5797C30.1546 21.1173 31.9118 20.8527 33.7243 21.0372C34.4368 21.1097 35.1287 21.2565 35.764 21.5701C36.2505 21.81 36.6496 22.1242 36.8352 22.6152C37.0184 23.0984 37.0127 23.5881 36.8859 24.0789C36.628 25.0728 36.0234 25.8921 35.2624 26.6242C34.0143 27.8243 32.4918 28.6413 30.7777 29.181C29.7922 29.4918 28.7668 29.6886 27.7262 29.7669C26.8734 29.8313 26.0384 29.7632 25.2309 29.4963C24.6962 29.3194 24.2305 29.0488 23.8562 28.6562C23.7893 28.5859 23.7037 28.5097 23.579 28.5755C23.4568 28.6402 23.4352 28.7448 23.4762 28.8508C23.5446 29.0269 23.6077 29.2103 23.7143 29.3678C23.9821 29.7629 24.3727 30.0495 24.8027 30.2953C25.6287 30.7681 26.5518 30.927 27.509 30.9639C28.9615 31.0204 30.3787 30.8252 31.7759 30.4745C33.7705 29.9739 35.5049 29.0896 36.8959 27.6946C38.054 26.5331 38.8812 25.2222 39.0584 23.6393C39.1449 22.8667 39.0527 22.1098 38.6509 21.405C38.2149 20.6414 37.5218 20.0736 36.693 19.6824C35.4862 19.1128 34.1837 18.7812 32.8393 18.7812H31.4924C29.8643 18.7812 28.2902 19.2012 26.7602 19.7021C25.6021 20.0815 24.4665 20.5292 23.364 21.0248C20.963 22.1045 18.7271 23.4064 16.8905 25.1966C15.9755 26.0884 15.2009 27.0725 14.7552 28.2312C14.6207 28.5772 14.5049 28.9288 14.408 29.2848M23.1077 39.4135C23.0037 40.6676 22.3721 41.6843 21.3399 42.5078C20.7593 42.9707 20.0934 43.3003 19.3177 43.4162C19.0365 43.4581 18.7487 43.4682 18.4759 43.3633C18.0868 43.2137 17.9996 42.9029 17.9921 42.5719C17.9805 42.0443 18.1859 41.5673 18.4674 41.1133C18.8349 40.5216 19.3737 40.0705 19.949 39.6492C20.8552 38.9851 21.8384 38.4232 22.8452 37.8928L22.9212 37.8646C23.0768 38.3821 23.1509 38.8932 23.1077 39.4135V39.4135ZM30.9696 33.9631C30.8962 34.3636 30.8043 34.7644 30.6743 35.1525C30.2249 36.4961 29.6477 37.798 29.0237 39.0824C28.9084 39.3201 28.7405 39.5369 28.5946 39.7622C28.5698 39.7969 28.5401 39.8284 28.5062 39.8562C28.3255 40.0167 28.1543 40.0083 28.063 39.7982C27.9568 39.5541 27.8915 39.2928 27.8352 39.0343C27.7974 38.8608 27.8065 38.6786 27.7946 38.5008C27.8068 37.2369 28.2352 36.0883 28.9621 35.0189C29.2618 34.5779 29.588 34.1578 30.0865 33.8788C30.2415 33.792 30.4093 33.7252 30.5849 33.6802C30.8505 33.613 31.0137 33.7235 30.9696 33.9631V33.9631ZM36.3334 40.1135L38.2612 38.0877C38.3415 38.84 36.9205 40.3419 36.3334 40.1135ZM42.4905 38.7503C42.3543 38.8206 42.2059 38.8712 42.0662 38.9362C41.9384 38.9958 41.8962 38.9356 41.8924 38.8366C41.8905 38.7681 41.9003 38.6997 41.9215 38.6338C42.1818 37.8075 42.6609 37.1022 43.3737 36.5284L43.4237 36.5053C43.7627 37.3589 43.3709 38.2963 42.4905 38.7503Z" fill="#F1F1F1"/>
</g>
</g>
<defs>
<linearGradient id="paint0_linear_585_38" x1="2" y1="2" x2="66" y2="68.5" gradientUnits="userSpaceOnUse">
<stop stop-color="#732EB8"/>
<stop offset="1" stop-color="#732EB8" stop-opacity="0"/>
</linearGradient>
<linearGradient id="paint1_linear_585_38" x1="2" y1="2" x2="66" y2="68.5" gradientUnits="userSpaceOnUse">
<stop stop-color="#732EB8"/>
<stop offset="1" stop-color="#732EB8" stop-opacity="0"/>
</linearGradient>
</defs>
</svg>
