<svg width="268" height="68" viewBox="0 0 268 68" fill="none" xmlns="http://www.w3.org/2000/svg">
<rect x="2" y="2" width="64" height="64" rx="6" fill="url(#paint0_linear_578_30)" stroke="url(#paint1_linear_578_30)" stroke-width="3"/>
<rect x="102" y="2" width="64" height="64" rx="6" fill="url(#paint2_linear_578_30)" stroke="url(#paint3_linear_578_30)" stroke-width="3"/>
<rect x="202" y="2" width="64" height="64" rx="6" fill="url(#paint4_linear_578_30)" stroke="url(#paint5_linear_578_30)" stroke-width="3"/>
<path d="M117.029 28.6684C117.029 28.6684 116.177 28.0522 117.2 27.2304L119.582 25.0945C119.582 25.0945 120.264 24.3748 120.985 25.0023L142.972 41.6883V49.6899C142.972 49.6899 142.961 50.9465 141.352 50.8081L117.029 28.6684Z" fill="#F1F1F1"/>
<path d="M122.696 33.8254L117.028 38.9899C117.028 38.9899 116.446 39.4239 117.028 40.2007L119.66 42.5989C119.66 42.5989 120.285 43.2725 121.209 42.5067L127.216 37.9398L122.696 33.8254ZM132.646 33.8681L143.039 25.9129L142.971 17.9544C142.971 17.9544 142.528 16.2174 141.047 17.1222L127.216 29.7394L132.646 33.8681Z" fill="#F1F1F1"/>
<path d="M141.352 50.8179C141.955 51.4375 142.687 51.2342 142.687 51.2342L150.786 47.2343C151.823 46.5255 151.678 45.6466 151.678 45.6466V21.7558C151.678 20.7054 150.606 20.3428 150.606 20.3428L143.586 16.9507C142.052 16.0003 141.047 17.1222 141.047 17.1222C141.047 17.1222 142.339 16.1893 142.971 17.9547V49.5439C142.971 49.7613 142.925 49.9742 142.833 50.1666C142.649 50.5412 142.246 50.8894 141.285 50.7434L141.352 50.8179Z" fill="#F1F1F1"/>
<path d="M51.0837 32.4189L35.582 16.9181C34.6899 16.0254 33.242 16.0254 32.3485 16.9181L29.1301 20.1372L33.2133 24.2204C34.1625 23.9001 35.2504 24.115 36.0067 24.8712C36.3671 25.232 36.6187 25.6869 36.7328 26.1839C36.8468 26.6809 36.8187 27.2 36.6516 27.6818L40.5868 31.6176C41.5389 31.2894 42.6377 31.5014 43.3977 32.2631C44.4608 33.3253 44.4608 35.0474 43.3977 36.1103C43.145 36.363 42.8451 36.5635 42.5149 36.7003C42.1847 36.8371 41.8309 36.9076 41.4735 36.9076C41.1161 36.9076 40.7622 36.8371 40.4321 36.7003C40.1019 36.5635 39.802 36.363 39.5493 36.1103C39.1697 35.7305 38.911 35.2469 38.8057 34.7203C38.7003 34.1938 38.7531 33.6479 38.9573 33.1512L35.2875 29.4812L35.287 39.1396C35.5532 39.2707 35.7963 39.4444 36.0067 39.6537C37.0695 40.716 37.0695 42.4376 36.0067 43.5021C34.9439 44.5644 33.2212 44.5644 32.1595 43.5021C31.0969 42.4378 31.0097 40.7163 32.072 39.6537C32.3347 39.3913 32.5937 39.1931 32.875 39.0603V29.3125C32.5937 29.1797 32.335 28.9828 32.0717 28.7187C31.2671 27.9144 31.1166 26.7331 31.5295 25.7442L27.5264 21.7187L16.9081 32.3471C16.0152 33.2407 16.0208 34.6886 16.9138 35.5815L32.4179 51.0823C33.3104 51.975 34.7593 51.975 35.6532 51.0823L51.0825 35.6535C51.9755 34.7603 51.9763 33.3116 51.0837 32.4189Z" fill="#F1F1F1"/>
<path d="M228.797 52.2812C232.144 52.2812 234.844 49.5812 234.844 46.2344V40.1875H228.797C225.45 40.1875 222.75 42.8875 222.75 46.2344C222.75 49.5812 225.45 52.2812 228.797 52.2812ZM222.75 34.1406C222.75 30.7937 225.45 28.0938 228.797 28.0938H234.844V40.1875H228.797C225.45 40.1875 222.75 37.4875 222.75 34.1406ZM222.75 22.0469C222.75 18.7 225.45 16 228.797 16H234.844V28.0938H228.797C225.45 28.0938 222.75 25.3938 222.75 22.0469ZM234.844 16H240.891C244.237 16 246.938 18.7 246.938 22.0469C246.938 25.3938 244.237 28.0938 240.891 28.0938H234.844V16ZM246.938 34.1406C246.938 37.4875 244.237 40.1875 240.891 40.1875C237.544 40.1875 234.844 37.4875 234.844 34.1406C234.844 30.7937 237.544 28.0938 240.891 28.0938C244.237 28.0938 246.938 30.7937 246.938 34.1406Z" fill="#F1F1F1"/>
<defs>
<linearGradient id="paint0_linear_578_30" x1="66" y1="66" x2="2" y2="2" gradientUnits="userSpaceOnUse">
<stop stop-color="#732EB8"/>
<stop offset="1" stop-color="#732EB8" stop-opacity="0"/>
</linearGradient>
<linearGradient id="paint1_linear_578_30" x1="66" y1="66" x2="2" y2="2" gradientUnits="userSpaceOnUse">
<stop stop-color="#732EB8"/>
<stop offset="1" stop-color="#732EB8" stop-opacity="0"/>
</linearGradient>
<linearGradient id="paint2_linear_578_30" x1="166" y1="66" x2="102" y2="2" gradientUnits="userSpaceOnUse">
<stop stop-color="#732EB8"/>
<stop offset="1" stop-color="#732EB8" stop-opacity="0"/>
</linearGradient>
<linearGradient id="paint3_linear_578_30" x1="166" y1="66" x2="102" y2="2" gradientUnits="userSpaceOnUse">
<stop stop-color="#732EB8"/>
<stop offset="1" stop-color="#732EB8" stop-opacity="0"/>
</linearGradient>
<linearGradient id="paint4_linear_578_30" x1="266" y1="66" x2="202" y2="2" gradientUnits="userSpaceOnUse">
<stop stop-color="#732EB8"/>
<stop offset="1" stop-color="#732EB8" stop-opacity="0"/>
</linearGradient>
<linearGradient id="paint5_linear_578_30" x1="266" y1="66" x2="202" y2="2" gradientUnits="userSpaceOnUse">
<stop stop-color="#732EB8"/>
<stop offset="1" stop-color="#732EB8" stop-opacity="0"/>
</linearGradient>
</defs>
</svg>
