<svg width="68" height="68" viewBox="0 0 68 68" fill="none" xmlns="http://www.w3.org/2000/svg">
<g id="vs">
<rect id="Rectangle 67" x="2" y="2" width="64" height="64" rx="6" fill="url(#paint0_linear_586_41)" stroke="url(#paint1_linear_586_41)" stroke-width="3"/>
<path id="Vector" d="M17.0285 28.6684C17.0285 28.6684 16.1772 28.0522 17.2001 27.2304L19.5817 25.0945C19.5817 25.0945 20.264 24.3748 20.9849 25.0023L42.9716 41.6883V49.6899C42.9716 49.6899 42.9606 50.9465 41.3524 50.8081L17.0285 28.6684Z" fill="#F1F1F1"/>
<path id="Vector_2" d="M22.6963 33.8254L17.0283 38.9899C17.0283 38.9899 16.4461 39.4239 17.0283 40.2007L19.6597 42.5989C19.6597 42.5989 20.2846 43.2725 21.2088 42.5067L27.216 37.9398L22.6963 33.8254ZM32.6455 33.8681L43.0386 25.9129L42.9713 17.9544C42.9713 17.9544 42.5275 16.2174 41.0468 17.1222L27.216 29.7394L32.6455 33.8681Z" fill="#F1F1F1"/>
<path id="Vector_3" d="M41.352 50.8179C41.9553 51.4375 42.6871 51.2342 42.6871 51.2342L50.7863 47.2343C51.8232 46.5255 51.6781 45.6466 51.6781 45.6466V21.7558C51.6781 20.7054 50.606 20.3428 50.606 20.3428L43.5857 16.9507C42.0521 16.0003 41.0469 17.1222 41.0469 17.1222C41.0469 17.1222 42.3387 16.1893 42.9715 17.9547V49.5439C42.9715 49.7613 42.9253 49.9742 42.8331 50.1666C42.6486 50.5412 42.2464 50.8894 41.2851 50.7434L41.352 50.8179Z" fill="#F1F1F1"/>
</g>
<defs>
<linearGradient id="paint0_linear_586_41" x1="66" y1="66" x2="2" y2="2" gradientUnits="userSpaceOnUse">
<stop stop-color="#732EB8"/>
<stop offset="1" stop-color="#732EB8" stop-opacity="0"/>
</linearGradient>
<linearGradient id="paint1_linear_586_41" x1="66" y1="66" x2="2" y2="2" gradientUnits="userSpaceOnUse">
<stop stop-color="#732EB8"/>
<stop offset="1" stop-color="#732EB8" stop-opacity="0"/>
</linearGradient>
</defs>
</svg>
